<?xml version="1.0" standalone="no"?>
<!DOCTYPE svg PUBLIC "-//W3C//DTD SVG 20010904//EN"
 "http://www.w3.org/TR/2001/REC-SVG-20010904/DTD/svg10.dtd">
<svg version="1.0" xmlns="http://www.w3.org/2000/svg"
 width="490.000000pt" height="605.000000pt" viewBox="0 0 490.000000 605.000000"
 preserveAspectRatio="xMidYMid meet">

<g transform="translate(0.000000,605.000000) scale(0.100000,-0.100000)"
fill="#000000" stroke="none">
<path d="M1874 5585 c-15 -37 0 -42 163 -48 87 -4 248 -7 359 -7 212 0 240 6
232 46 -3 18 -17 19 -376 22 -325 2 -373 0 -378 -13z"/>
<path d="M3683 5073 c-7 -2 -13 -13 -13 -22 0 -22 237 -660 252 -678 15 -18
45 -16 52 3 6 16 -222 637 -250 682 -15 22 -19 24 -41 15z"/>
<path d="M2345 4980 c-423 -56 -757 -383 -822 -805 -71 -469 223 -921 688
-1055 94 -28 297 -38 405 -20 358 57 651 319 761 677 24 79 26 104 27 253 1
179 -6 217 -63 367 -77 198 -251 387 -451 488 -164 83 -366 118 -545 95z m345
-85 c30 -9 79 -26 107 -37 l53 -19 -32 -47 c-17 -26 -84 -99 -147 -163 -93
-93 -130 -122 -184 -148 -74 -35 -111 -76 -152 -166 -29 -62 -38 -106 -26
-124 12 -18 73 -16 152 5 163 43 319 -2 319 -92 0 -66 -94 -227 -225 -384 -83
-99 -322 -342 -352 -358 -16 -9 -18 -3 -20 62 -2 94 -44 218 -139 411 -107
216 -103 245 35 299 l69 27 7 84 c10 125 -6 185 -54 204 -14 5 -51 15 -81 22
-72 16 -135 48 -190 97 l-45 40 60 62 c105 107 253 190 413 230 100 25 345 23
432 -5z m260 -117 c85 -56 197 -167 249 -247 22 -35 41 -69 41 -75 0 -6 -25
-43 -55 -81 -124 -159 -126 -209 -8 -290 58 -41 137 -142 150 -195 14 -54 -55
-240 -128 -347 -44 -64 -119 -151 -136 -157 -8 -3 -32 3 -54 15 -155 79 -354
17 -593 -186 -38 -33 -74 -55 -88 -55 -37 0 -163 38 -233 69 -312 142 -516
458 -517 800 0 58 5 135 12 170 16 90 63 213 110 290 68 113 60 109 124 57 82
-66 100 -74 259 -110 49 -11 67 -87 50 -211 -6 -47 -6 -47 -72 -77 -93 -41
-111 -61 -111 -118 0 -37 15 -77 79 -209 96 -198 135 -312 135 -401 1 -36 -3
-75 -7 -87 -18 -51 27 -18 174 125 280 272 445 494 465 629 8 57 -13 88 -81
119 -69 32 -157 33 -276 4 -104 -24 -123 -20 -113 24 9 42 57 136 88 173 14
16 54 44 89 61 77 38 207 157 297 271 35 45 68 81 74 81 6 0 40 -19 76 -42z
m330 -395 c50 -113 86 -356 66 -438 -7 -27 -8 -25 -49 41 -30 48 -58 79 -97
106 -30 21 -63 47 -72 59 -21 24 -23 70 -6 102 10 20 130 177 135 177 1 0 11
-21 23 -47z m-295 -994 c25 -12 45 -25 45 -30 0 -12 -103 -80 -175 -116 -125
-63 -257 -93 -400 -92 l-80 0 50 45 c63 57 196 147 261 176 116 51 214 57 299
17z"/>
<path d="M1017 4663 c-17 -30 -247 -663 -247 -681 0 -28 27 -40 45 -21 7 8 69
164 139 348 98 259 124 337 115 347 -12 15 -45 19 -52 7z"/>
<path d="M3623 3018 c-153 -121 -281 -226 -285 -232 -13 -19 -4 -41 19 -44 17
-2 95 55 299 219 151 122 278 228 281 236 5 14 -13 43 -27 43 -5 0 -133 -100
-287 -222z"/>
<path d="M1413 2933 c-40 -15 -5 -50 270 -269 282 -225 318 -247 325 -199 2
15 -62 72 -281 248 -156 125 -288 227 -293 226 -5 0 -15 -3 -21 -6z"/>
<path d="M3156 2226 c-33 -32 -47 -109 -49 -268 -2 -148 -7 -161 -84 -228 -48
-42 -92 -60 -148 -60 -57 0 -100 21 -120 60 -21 40 -19 67 9 136 l24 59 68 15
c37 8 65 20 63 25 -5 11 -39 12 -87 2 l-32 -7 6 53 c5 43 3 56 -13 76 -14 17
-25 22 -41 17 -21 -7 -29 -26 -49 -121 -7 -37 -11 -40 -47 -45 -58 -7 -59 -30
-2 -30 l46 0 0 -52 c0 -50 -2 -54 -54 -104 -42 -40 -68 -57 -112 -70 -105 -30
-160 10 -157 116 2 64 -5 72 -41 45 -35 -26 -44 -19 -38 30 4 40 2 45 -15 45
-29 0 -44 -23 -41 -62 4 -64 -115 -178 -185 -178 -47 0 -67 31 -67 105 0 79
-19 88 -44 21 -22 -58 -88 -118 -124 -114 -22 2 -28 9 -30 36 -4 38 27 98 66
127 20 15 41 20 80 19 35 -1 52 2 49 10 -6 18 -51 29 -91 22 -36 -7 -57 -25
-158 -135 -66 -73 -140 -105 -238 -105 -124 -1 -174 45 -145 132 3 9 12 5 28
-14 41 -48 108 -27 122 37 14 62 -46 105 -104 75 -73 -38 -107 -146 -65 -203
34 -45 70 -58 164 -58 91 1 150 20 216 70 39 30 44 31 44 6 0 -69 113 -66 168
4 23 29 32 32 32 9 0 -8 13 -29 29 -45 56 -56 140 -32 230 67 43 47 58 57 86
58 31 1 34 -1 39 -38 14 -82 60 -126 136 -126 47 0 128 36 180 79 l48 40 12
-28 c6 -16 25 -41 41 -57 25 -24 40 -29 95 -32 86 -6 138 15 203 79 l50 51 3
-58 c4 -76 23 -81 32 -9 7 66 28 121 58 152 46 49 68 18 68 -91 0 -65 3 -79
24 -103 33 -38 92 -37 165 2 54 30 151 126 151 150 0 31 -20 22 -54 -23 -79
-108 -224 -164 -250 -97 -3 9 -6 49 -6 89 0 59 -4 78 -21 100 -21 27 -48 33
-78 16 -14 -7 -8 11 22 73 32 65 41 95 45 152 4 61 1 74 -18 98 -27 34 -63 35
-94 3z m68 -22 c35 -34 7 -163 -59 -274 l-26 -45 4 135 c3 130 13 173 41 192
16 11 23 10 40 -8z m-451 -205 c-5 -28 -14 -44 -23 -44 -17 0 -16 60 2 104 10
25 10 26 20 5 6 -13 6 -38 1 -65z m-23 -88 c0 -6 -4 -13 -10 -16 -5 -3 -10 1
-10 9 0 9 5 16 10 16 6 0 10 -4 10 -9z m-1286 -47 c19 -18 19 -16 6 -49 -8
-21 -16 -26 -38 -23 -22 2 -28 9 -30 33 -3 19 2 33 14 42 23 17 29 16 48 -3z"/>
<path d="M3056 1117 c-36 -36 -46 -87 -46 -229 l0 -126 -30 15 c-42 20 -74 10
-107 -34 -85 -110 -151 -164 -220 -176 -25 -5 -38 -1 -58 16 -22 19 -26 34
-33 106 -6 76 -10 86 -34 104 l-28 21 -30 -22 c-35 -26 -40 -27 -40 -7 0 8 -7
15 -15 15 -11 0 -15 -12 -15 -44 0 -39 -6 -50 -47 -94 -27 -27 -73 -63 -103
-78 -48 -25 -66 -29 -142 -29 -72 0 -91 3 -115 21 -37 27 -48 61 -33 99 l12
30 14 -27 c34 -64 116 -37 122 39 4 49 -16 73 -59 73 -45 0 -62 -13 -118 -89
-98 -132 -220 -181 -309 -124 -35 22 -54 76 -51 147 2 47 0 61 -12 61 -9 0
-15 -13 -17 -37 -2 -28 -15 -50 -50 -89 -76 -84 -192 -124 -249 -84 -29 20
-47 78 -39 125 7 46 -5 57 -36 36 -38 -27 -49 -21 -42 24 5 32 3 41 -11 47
-27 10 -58 -32 -50 -69 6 -24 0 -37 -30 -74 -21 -25 -54 -57 -75 -70 -45 -30
-155 -69 -240 -84 -34 -6 -68 -14 -76 -17 -12 -4 -14 13 -14 101 0 105 0 106
35 155 51 71 86 155 92 220 5 51 3 60 -20 86 -22 26 -28 28 -53 20 -70 -25
-84 -108 -84 -505 0 -286 1 -307 20 -337 52 -85 145 16 111 120 -7 19 -28 50
-47 70 -19 19 -32 37 -27 40 4 3 35 10 68 16 163 32 247 72 322 154 39 43 57
55 86 59 35 4 37 2 37 -24 0 -42 24 -92 55 -116 61 -48 211 -9 284 73 l30 34
11 -33 c20 -63 88 -106 165 -106 39 0 122 39 167 78 l35 31 16 -35 c26 -54 88
-78 191 -72 93 5 166 35 226 94 20 19 39 34 43 34 4 0 7 -22 7 -49 0 -49 15
-75 30 -51 4 6 10 45 13 85 7 92 23 130 57 130 24 0 25 -3 32 -83 4 -49 13
-94 23 -108 21 -32 61 -47 105 -39 44 8 122 50 151 82 l23 23 10 -31 c6 -18
23 -41 38 -52 23 -17 31 -18 59 -8 19 6 48 25 65 42 l32 31 16 -30 c47 -92
160 -79 262 30 l44 47 14 -32 c18 -45 69 -93 112 -107 78 -26 200 9 295 85 49
39 59 42 59 20 0 -30 29 -72 58 -84 37 -16 72 -2 106 41 l26 33 0 -43 c0 -39
-5 -47 -63 -105 -49 -47 -68 -75 -82 -115 -38 -116 25 -193 104 -126 36 30 57
94 69 203 l7 73 75 27 c83 29 135 64 180 121 30 38 38 60 21 60 -5 0 -38 -28
-73 -63 -51 -51 -75 -68 -127 -85 -36 -12 -69 -22 -73 -22 -4 0 -8 24 -8 53 0
90 -12 157 -26 157 -8 0 -14 -8 -14 -18 0 -35 -30 -118 -50 -140 -61 -65 -126
18 -101 130 7 28 7 46 0 53 -13 13 -29 -12 -29 -44 0 -34 -91 -121 -161 -153
-110 -52 -195 -45 -248 19 -49 60 -49 81 2 181 78 151 100 274 57 320 -41 43
-98 25 -126 -40 -15 -36 -18 -69 -17 -204 l1 -162 -48 -50 c-52 -54 -114 -92
-153 -92 -27 0 -61 32 -76 71 -7 21 -3 44 25 117 38 103 69 265 60 315 -13 68
-60 94 -100 54z m65 -56 c9 -46 -7 -158 -38 -255 -20 -64 -27 -76 -35 -62 -15
26 -5 295 12 329 19 39 52 33 61 -12z m349 20 c24 -46 0 -155 -61 -270 l-29
-56 3 145 c2 120 5 151 20 173 20 32 52 35 67 8z m-2749 -55 c17 -37 2 -108
-37 -184 -53 -102 -57 -101 -51 8 7 106 18 154 43 181 23 25 32 24 45 -5z
m1357 -303 c2 -24 -2 -34 -18 -43 -28 -15 -50 3 -50 40 0 34 8 42 40 38 20 -2
26 -9 28 -35z m920 1 c31 -35 28 -67 -12 -109 -29 -30 -41 -36 -68 -33 -25 2
-35 9 -42 29 -22 63 29 158 77 144 12 -4 32 -18 45 -31z m1022 -332 c-15 -89
-34 -130 -66 -144 -23 -11 -28 -10 -41 7 -30 41 0 126 69 197 50 51 56 42 38
-60z m-3352 6 c44 -48 52 -129 16 -159 -14 -11 -19 -10 -35 10 -15 18 -19 40
-19 97 0 41 4 74 8 74 5 0 18 -10 30 -22z"/>
<path d="M1552 888 c2 -13 10 -23 18 -23 8 0 16 10 18 23 3 17 -2 22 -18 22
-16 0 -21 -5 -18 -22z"/>
</g>
</svg>
