<?xml version="1.0" standalone="no"?>
<!DOCTYPE svg PUBLIC "-//W3C//DTD SVG 20010904//EN"
 "http://www.w3.org/TR/2001/REC-SVG-20010904/DTD/svg10.dtd">
<svg version="1.0" xmlns="http://www.w3.org/2000/svg"
 width="529.000000pt" height="565.000000pt" viewBox="0 0 529.000000 565.000000"
 preserveAspectRatio="xMidYMid meet">

<g transform="translate(0.000000,565.000000) scale(0.100000,-0.100000)"
fill="#000000" stroke="none">
<path d="M3563 5366 c-29 -14 -72 -43 -97 -66 -59 -55 -151 -191 -215 -319
-47 -92 -54 -102 -74 -96 -49 14 -675 76 -726 71 -110 -10 -117 -16 -682 -583
-586 -588 -564 -561 -564 -698 1 -132 8 -142 418 -552 308 -308 370 -366 419
-388 69 -31 162 -35 240 -10 49 16 89 53 586 549 302 300 542 547 553 569 40
77 40 110 3 474 -19 189 -38 353 -43 365 -8 21 -1 27 108 79 273 130 403 256
403 389 0 60 -28 114 -90 172 -76 72 -150 85 -239 44z m170 -76 c69 -48 102
-115 86 -174 -24 -88 -129 -175 -336 -278 l-143 -71 -39 40 -40 40 54 106 c93
185 196 315 280 353 39 19 98 11 138 -16z m-902 -434 c173 -18 320 -36 327
-40 8 -5 6 -19 -7 -54 -18 -46 -19 -47 -72 -54 -74 -9 -109 -47 -109 -119 0
-42 5 -55 29 -79 52 -53 131 -52 175 1 34 40 41 72 27 119 -9 32 -8 46 5 82 9
24 21 47 25 52 13 14 36 -11 64 -68 23 -46 29 -89 60 -386 35 -342 35 -373 2
-435 -27 -51 -1047 -1062 -1089 -1080 -21 -8 -64 -15 -96 -15 -104 0 -122 14
-514 407 -349 351 -356 359 -373 417 -20 68 -15 127 14 184 11 20 250 266 533
549 540 540 556 553 643 552 22 0 182 -14 356 -33z m291 -233 c22 -20 23 -41
1 -65 -32 -36 -83 -17 -83 32 0 48 45 67 82 33z"/>
<path d="M2465 4013 c-297 -24 -555 -115 -754 -263 -107 -81 -149 -126 -135
-148 19 -30 41 -24 97 26 200 182 498 295 812 309 128 6 155 13 155 41 0 40
-34 47 -175 35z"/>
<path d="M1995 2210 c-28 -31 -45 -131 -45 -272 l0 -126 -40 -51 c-56 -70
-119 -105 -191 -106 -70 0 -108 24 -128 82 -13 37 -13 44 9 99 13 32 28 64 32
69 5 6 37 15 71 20 44 7 62 14 62 25 0 8 -4 14 -10 14 -5 -1 -33 -5 -61 -9
l-51 -6 5 55 c5 63 -7 86 -44 86 -30 0 -43 -25 -52 -98 l-7 -57 -47 -9 c-31
-6 -48 -14 -48 -24 0 -12 9 -13 44 -9 43 6 44 6 50 -25 11 -54 7 -65 -38 -111
-81 -83 -202 -123 -311 -103 -66 13 -106 78 -75 126 7 12 13 9 30 -13 58 -74
159 23 104 101 -34 49 -121 15 -158 -62 -31 -66 -12 -136 45 -166 96 -52 277
-14 370 76 l36 36 23 -47 c56 -115 222 -112 335 5 l40 41 5 -53 c4 -38 9 -53
20 -53 11 0 17 17 22 62 9 85 49 153 89 153 23 0 29 -20 29 -100 0 -38 5 -80
11 -93 35 -77 175 -53 267 47 l39 43 20 -47 c47 -110 202 -120 316 -20 21 18
39 31 41 29 2 -2 11 -19 20 -36 19 -37 53 -58 113 -68 75 -12 204 26 260 77
22 20 43 17 43 -6 0 -7 9 -21 20 -31 30 -27 85 -12 133 36 45 45 47 45 47 21
0 -29 28 -60 66 -72 50 -17 108 7 173 71 53 52 61 57 61 36 0 -26 52 -88 92
-108 88 -45 239 -2 347 99 46 44 66 82 41 82 -5 0 -30 -23 -56 -50 -50 -53
-144 -106 -206 -116 -85 -14 -167 32 -189 106 -11 36 -9 43 24 102 48 86 87
205 87 266 0 115 -102 143 -146 40 -14 -35 -18 -72 -18 -205 l-1 -163 -28 -36
c-45 -56 -104 -94 -147 -94 -54 0 -73 26 -74 100 -1 33 -5 61 -10 62 -5 2 -23
-23 -39 -55 -20 -38 -43 -68 -68 -84 -49 -33 -73 -28 -77 16 -5 45 14 85 56
122 31 28 40 31 83 27 54 -6 64 -1 48 19 -17 20 -96 16 -134 -7 -18 -11 -45
-38 -60 -60 -61 -89 -141 -141 -241 -159 -137 -24 -225 51 -165 143 41 63 123
87 149 45 10 -15 17 -18 24 -11 16 16 -15 58 -47 66 -47 12 -107 -25 -170
-104 -92 -115 -188 -161 -272 -129 -58 23 -78 58 -79 145 -1 41 -4 78 -8 81
-10 11 -26 -18 -26 -47 0 -26 -51 -97 -92 -129 -38 -30 -106 -61 -133 -61 -44
0 -67 34 -64 93 4 85 0 105 -24 133 -21 24 -27 26 -54 16 l-31 -10 34 73 c57
124 67 213 27 257 -22 24 -75 23 -98 -2z m85 -44 c15 -46 -1 -111 -53 -216
l-42 -85 -3 80 c-3 83 12 204 29 236 5 11 20 19 34 19 18 0 26 -8 35 -34z
m1760 15 c24 -46 -2 -163 -60 -271 l-30 -55 3 145 c2 120 5 151 20 173 20 32
52 35 67 8z m-2220 -150 c0 -52 -12 -91 -28 -91 -12 0 -14 9 -9 50 3 28 9 55
12 60 12 19 25 10 25 -19z m-33 -143 c-3 -8 -6 -5 -6 6 -1 11 2 17 5 13 3 -3
4 -12 1 -19z m-359 -40 c17 -17 15 -44 -4 -62 -22 -23 -43 -20 -55 8 -21 45
26 87 59 54z"/>
<path d="M2443 1994 c-7 -18 11 -39 26 -30 17 11 13 46 -4 46 -9 0 -18 -7 -22
-16z"/>
<path d="M2271 1095 c-29 -38 -41 -111 -41 -260 l0 -133 -35 -42 c-80 -96
-147 -127 -194 -93 -23 18 -26 28 -29 87 -3 76 -23 90 -42 30 -7 -20 -32 -56
-55 -81 -35 -36 -49 -44 -72 -41 -24 2 -28 8 -31 36 -8 77 80 161 153 148 38
-8 55 8 26 23 -55 30 -121 5 -177 -66 -105 -132 -185 -178 -359 -208 -22 -3
-50 -9 -62 -12 -23 -5 -23 -4 -23 99 l0 105 45 69 c101 152 107 304 14 304
-36 0 -66 -42 -78 -107 -5 -26 -11 -196 -13 -378 -3 -347 -2 -362 42 -385 30
-16 66 7 85 52 22 56 0 131 -53 176 -33 27 -22 37 53 47 82 12 209 59 264 99
44 33 51 35 51 18 0 -10 8 -26 18 -35 38 -35 107 -13 158 50 22 26 23 26 24 7
0 -33 37 -73 75 -80 50 -9 98 11 160 67 l54 50 3 -52 c4 -73 24 -74 38 -2 26
124 98 203 130 144 21 -41 2 -147 -22 -123 -34 34 -82 -2 -76 -56 4 -33 38
-41 74 -17 24 15 29 15 65 1 84 -34 157 -9 240 82 41 45 58 57 84 58 31 1 33
-2 39 -39 20 -121 116 -158 246 -92 27 14 65 41 84 60 l35 35 20 -44 c24 -56
77 -86 151 -86 61 0 109 19 165 65 l42 34 17 -35 c38 -81 184 -97 312 -34 58
28 164 126 164 151 0 22 -37 6 -58 -26 -54 -79 -153 -128 -259 -129 -80 -1
-120 19 -138 68 -26 75 117 190 157 126 7 -11 18 -20 25 -20 21 0 15 38 -9 54
-53 37 -128 6 -195 -79 -104 -133 -213 -178 -300 -125 -46 27 -57 55 -58 139
-1 43 -6 76 -12 78 -11 4 -23 -28 -23 -63 0 -32 -76 -112 -133 -141 -63 -32
-137 -35 -167 -8 -26 24 -41 80 -34 127 5 30 3 38 -9 38 -9 0 -19 -4 -22 -10
-3 -5 -16 -10 -29 -10 -20 0 -23 5 -22 41 1 23 -4 44 -10 46 -21 7 -44 -28
-44 -67 0 -85 -125 -189 -209 -175 -59 10 -74 25 -62 58 43 112 -33 209 -113
146 -26 -21 -26 -20 8 42 68 126 87 256 43 297 -32 30 -71 28 -96 -3z m77 -17
c31 -31 -1 -179 -59 -273 l-30 -50 4 130 c2 91 8 141 20 168 17 38 42 48 65
25z m-927 -75 c14 -38 -13 -136 -57 -205 l-33 -53 0 75 c0 91 11 151 33 185
21 33 44 32 57 -2z m859 -293 c-6 -11 -13 -20 -16 -20 -2 0 0 9 6 20 6 11 13
20 16 20 2 0 0 -9 -6 -20z m84 -129 c7 -10 -22 -37 -30 -28 -9 8 3 37 15 37 5
0 12 -4 15 -9z m-1007 -193 c30 -34 43 -63 43 -98 0 -58 -32 -89 -58 -57 -15
17 -28 177 -15 177 5 0 19 -10 30 -22z"/>
<path d="M3184 885 c-7 -18 3 -35 21 -35 21 0 28 19 15 35 -16 19 -29 19 -36
0z"/>
</g>
</svg>
