<?xml version="1.0" standalone="no"?>
<!DOCTYPE svg PUBLIC "-//W3C//DTD SVG 20010904//EN"
 "http://www.w3.org/TR/2001/REC-SVG-20010904/DTD/svg10.dtd">
<svg version="1.0" xmlns="http://www.w3.org/2000/svg"
 width="490.000000pt" height="604.000000pt" viewBox="0 0 490.000000 604.000000"
 preserveAspectRatio="xMidYMid meet">

<g transform="translate(0.000000,604.000000) scale(0.100000,-0.100000)"
fill="#000000" stroke="none">
<path d="M2980 5670 c-144 -20 -289 -79 -437 -176 l-82 -55 -126 82 c-215 138
-270 154 -479 146 -162 -7 -227 -21 -343 -78 -265 -131 -443 -425 -443 -733 0
-168 39 -295 130 -424 l40 -59 -1 -124 c-2 -142 9 -182 62 -222 37 -27 97 -47
145 -47 27 0 32 -4 38 -31 3 -17 6 -43 6 -58 1 -43 36 -109 71 -130 28 -17 62
-27 157 -47 13 -3 22 -12 22 -23 0 -10 9 -48 20 -84 30 -97 81 -135 201 -152
l46 -6 6 -49 c8 -68 39 -134 73 -157 22 -14 56 -19 154 -24 86 -4 147 -13 194
-28 178 -55 277 1 310 176 l12 68 75 20 c40 12 88 29 105 38 40 21 72 85 82
162 l7 59 75 16 c136 29 163 58 190 198 10 46 17 62 29 62 9 0 44 7 76 15 77
19 117 62 168 182 23 55 68 129 117 197 125 170 165 271 177 442 21 322 -176
650 -471 784 -120 55 -277 77 -406 60z m245 -94 c102 -27 219 -92 300 -168
299 -279 340 -735 90 -985 -46 -46 -70 -63 -83 -59 -9 3 -73 65 -142 138 -308
327 -380 390 -495 434 -63 24 -286 27 -350 5 -28 -10 -82 -55 -180 -151 -153
-150 -204 -184 -277 -183 -50 1 -161 53 -182 86 -15 23 10 67 85 150 90 100
529 519 617 589 89 71 210 132 302 153 78 18 228 13 315 -9z m-1066 -25 c35
-12 88 -37 117 -56 52 -34 123 -116 124 -144 0 -8 -126 -138 -280 -290 -300
-296 -321 -323 -300 -386 27 -83 154 -145 294 -145 107 1 140 20 286 169 143
146 197 181 296 189 82 6 156 -17 246 -78 82 -55 505 -474 532 -527 32 -64 16
-125 -49 -182 -27 -24 -45 -31 -76 -31 -50 0 -58 4 -154 84 -79 65 -141 103
-153 92 -11 -12 26 -71 90 -146 70 -81 98 -127 98 -160 0 -62 -90 -140 -162
-140 -53 0 -82 18 -153 90 -63 65 -101 90 -135 90 -14 0 -20 -6 -20 -22 0 -34
32 -80 90 -129 68 -58 104 -119 97 -164 -13 -82 -68 -145 -126 -145 -47 0
-116 44 -193 122 -70 72 -79 77 -107 72 -18 -4 -31 -13 -31 -21 0 -11 -7 -13
-32 -8 -79 18 -76 11 -59 124 21 147 -1 198 -121 279 -33 21 -37 28 -31 51 4
14 7 58 7 96 0 79 -18 122 -67 159 -38 28 -149 34 -236 11 -35 -9 -67 -13 -71
-8 -4 4 -13 26 -20 48 -24 74 -62 118 -121 136 -58 18 -129 -9 -276 -106
l-128 -85 -22 28 c-34 40 -88 148 -111 222 -64 198 -53 370 35 550 38 78 61
109 127 175 108 108 209 160 387 200 99 22 325 15 408 -14z m-412 -1065 c25
-22 28 -31 28 -83 -1 -78 -33 -142 -109 -219 -76 -75 -159 -118 -234 -118 -45
0 -56 4 -82 30 -67 67 -47 161 53 247 180 155 281 197 344 143z m380 -152 c37
-23 56 -70 48 -121 -7 -50 -43 -89 -240 -265 -121 -108 -180 -142 -252 -142
-44 0 -57 4 -83 29 -41 40 -42 102 -2 166 30 46 234 244 311 301 73 54 162 67
218 32z m136 -328 c36 -8 67 -59 67 -110 0 -120 -185 -305 -338 -337 -137 -28
-204 41 -156 161 12 29 46 68 118 132 55 50 116 102 134 116 32 24 116 53 137
46 6 -1 23 -5 38 -8z m146 -396 c13 -6 21 -26 26 -59 18 -134 -83 -264 -206
-265 -119 0 -175 119 -105 224 62 94 204 144 285 100z m175 -31 c26 -23 56
-59 67 -80 76 -150 -23 -289 -170 -238 -17 6 -31 17 -31 24 0 8 17 44 37 82
35 64 37 73 36 161 0 50 3 92 7 92 4 0 28 -19 54 -41z"/>
<path d="M1623 2168 c-11 -13 -26 -33 -32 -45 -20 -38 -29 -210 -28 -488 2
-241 4 -274 20 -298 40 -61 117 -16 117 69 0 58 -14 91 -56 130 l-34 33 37 10
c21 6 46 11 55 11 42 0 201 60 248 94 27 20 52 36 55 36 3 0 5 -9 5 -20 0 -11
11 -27 25 -36 34 -23 79 -10 130 37 l42 39 6 -29 c12 -58 97 -82 164 -48 17 9
52 37 77 62 34 35 46 42 46 28 0 -59 85 -122 166 -123 62 0 155 51 211 116 41
48 51 54 85 54 37 0 38 -1 38 -35 0 -80 47 -125 130 -125 86 1 166 44 232 127
31 39 36 63 13 63 -8 0 -15 -4 -15 -9 0 -4 -18 -29 -40 -54 -51 -58 -128 -97
-191 -97 -40 0 -51 4 -73 31 -21 25 -26 41 -26 88 0 67 -5 76 -34 56 -11 -8
-28 -15 -38 -15 -15 0 -16 4 -7 26 12 34 3 64 -21 64 -26 0 -43 -36 -36 -72 5
-25 -1 -37 -47 -85 -54 -58 -132 -103 -180 -103 -41 0 -91 24 -115 55 -18 23
-22 41 -22 106 0 64 -3 79 -15 79 -10 0 -15 -10 -15 -34 0 -69 -119 -186 -189
-186 -55 0 -72 24 -74 101 -2 69 -14 81 -36 34 -28 -62 -60 -102 -94 -118 -47
-23 -67 -14 -67 30 0 44 21 83 62 118 28 23 39 27 80 23 53 -6 63 -1 47 19
-17 20 -96 16 -133 -6 -17 -11 -51 -46 -75 -78 -24 -32 -63 -73 -86 -91 -46
-35 -153 -75 -247 -92 -32 -6 -66 -14 -74 -17 -12 -4 -14 13 -14 103 l1 109
39 60 c81 122 106 241 60 290 -29 31 -50 32 -77 3z m57 -23 c28 -34 -10 -182
-64 -250 -14 -19 -15 -15 -15 60 -1 90 9 144 33 180 19 29 29 31 46 10z m-53
-637 c48 -53 58 -121 23 -153 -34 -31 -52 -2 -58 94 -5 86 1 96 35 59z"/>
<path d="M2507 2006 c-8 -20 20 -43 35 -28 14 14 3 42 -16 42 -7 0 -16 -6 -19
-14z"/>
<path d="M2848 1119 c-31 -17 -48 -103 -48 -236 0 -119 -1 -123 -19 -113 -22
11 -61 13 -86 4 -8 -4 -30 -27 -47 -53 -72 -107 -153 -168 -208 -156 -44 10
-55 31 -54 102 1 80 -13 82 -52 6 -46 -89 -122 -130 -146 -79 -9 21 -7 33 13
73 33 65 80 97 137 89 32 -4 42 -2 42 8 0 32 -76 35 -129 5 -20 -11 -47 -36
-60 -55 -93 -136 -241 -198 -309 -130 -23 22 -27 36 -29 89 -2 65 0 64 -56 51
-27 -6 -28 -6 -21 33 5 33 3 41 -12 47 -29 11 -57 -30 -49 -71 6 -31 1 -39
-58 -97 -66 -66 -106 -86 -178 -86 -52 0 -101 36 -118 88 -12 40 -11 46 15
107 29 67 30 68 117 80 31 5 47 12 47 22 0 12 -11 13 -62 8 l-63 -7 3 56 c4
61 -8 86 -39 86 -27 0 -50 -41 -56 -104 -6 -55 -6 -56 -42 -62 -52 -8 -61 -12
-61 -24 0 -7 18 -10 48 -9 l47 3 6 -86 c10 -143 60 -194 184 -186 78 5 141 41
200 114 35 44 45 51 76 51 36 0 37 -1 42 -45 6 -55 33 -93 81 -111 50 -19 129
-1 195 44 l50 33 10 -29 c19 -54 86 -51 151 7 l40 36 9 -23 c23 -61 93 -84
157 -51 21 11 55 34 74 50 l34 29 18 -38 c28 -64 96 -65 155 -3 l32 35 15 -28
c45 -88 128 -89 237 -2 22 17 41 30 42 28 1 -2 9 -17 17 -34 33 -65 173 -91
285 -52 92 32 224 152 196 180 -10 9 -15 8 -27 -8 -60 -83 -142 -138 -234
-155 -134 -25 -229 33 -198 121 l10 30 19 -30 c35 -57 111 -36 125 35 8 41
-26 84 -68 84 -32 0 -65 -29 -142 -124 -65 -81 -146 -121 -201 -100 -9 4 -25
24 -36 46 l-21 40 26 58 c64 142 92 355 52 399 -20 23 -50 27 -78 10z m64 -54
c18 -61 -50 -370 -73 -334 -12 20 -11 256 2 304 20 72 55 87 71 30z m-1522
-142 c0 -52 -9 -81 -27 -87 -13 -5 -15 1 -9 44 4 28 9 57 12 65 11 28 24 15
24 -22z m-33 -145 c-3 -8 -6 -5 -6 6 -1 11 2 17 5 13 3 -3 4 -12 1 -19z m1917
-33 c23 -23 0 -75 -34 -75 -29 0 -41 55 -18 78 16 16 33 15 52 -3z m-490 -21
c37 -38 33 -69 -14 -116 -45 -45 -76 -48 -99 -7 -28 50 14 149 63 149 13 0 35
-12 50 -26z"/>
</g>
</svg>
