<?xml version="1.0" standalone="no"?>
<!DOCTYPE svg PUBLIC "-//W3C//DTD SVG 20010904//EN"
 "http://www.w3.org/TR/2001/REC-SVG-20010904/DTD/svg10.dtd">
<svg version="1.0" xmlns="http://www.w3.org/2000/svg"
 width="491.000000pt" height="604.000000pt" viewBox="0 0 491.000000 604.000000"
 preserveAspectRatio="xMidYMid meet">

<g transform="translate(0.000000,604.000000) scale(0.100000,-0.100000)"
fill="#000000" stroke="none">
<path d="M901 5713 c-77 -38 -95 -123 -93 -453 1 -454 27 -761 78 -938 68
-236 146 -371 329 -572 126 -139 245 -336 289 -480 33 -105 36 -110 67 -110
49 0 53 27 19 132 -59 183 -172 368 -331 543 -208 229 -306 461 -338 805 -20
205 -32 679 -22 812 11 141 24 181 60 186 62 9 102 -53 120 -183 34 -253 45
-464 39 -735 -2 -87 1 -102 31 -175 45 -111 122 -242 207 -355 73 -96 225
-252 255 -263 20 -7 59 19 59 39 0 8 -44 58 -97 112 -207 207 -373 496 -373
648 0 65 22 94 73 94 53 0 106 -46 230 -202 169 -211 243 -278 414 -368 144
-76 225 -165 264 -291 17 -55 19 -95 19 -411 0 -222 4 -356 10 -369 12 -21 50
-25 68 -7 20 20 17 706 -3 783 -45 174 -148 292 -341 388 -131 66 -212 142
-397 373 -57 72 -116 134 -143 152 -47 32 -117 49 -152 38 -24 -8 -25 -3 -42
224 -16 215 -37 388 -55 448 -37 121 -147 183 -244 135z"/>
<path d="M3875 5714 c-66 -34 -98 -86 -120 -193 -12 -56 -49 -428 -57 -571 -3
-45 -3 -45 -37 -42 -99 10 -166 -40 -337 -254 -152 -190 -228 -256 -394 -339
-98 -49 -197 -144 -244 -234 -61 -117 -66 -154 -66 -547 0 -368 1 -374 45
-374 44 0 45 6 45 375 0 294 3 360 16 406 42 141 115 226 262 303 173 91 250
160 427 381 62 77 127 150 144 163 43 32 94 39 125 18 56 -36 39 -145 -49
-321 -74 -147 -168 -278 -292 -404 -57 -57 -103 -108 -103 -112 0 -12 38 -49
49 -49 20 0 128 100 199 184 233 278 361 577 304 712 -11 26 -11 66 3 235 23
290 44 467 61 508 33 79 97 107 129 57 27 -41 38 -202 31 -462 -16 -613 -44
-791 -161 -1029 -57 -116 -100 -176 -229 -321 -43 -49 -107 -132 -142 -185
-100 -150 -189 -356 -182 -423 3 -28 6 -31 37 -31 l35 0 36 105 c64 184 156
336 301 495 150 165 231 299 295 490 69 206 95 476 98 990 1 249 -2 299 -17
355 -10 35 -25 73 -35 83 -39 45 -123 60 -177 31z"/>
<path d="M512 2253 c-50 -20 -74 -231 -56 -491 5 -67 11 -92 20 -92 9 0 14 12
14 33 0 79 53 187 91 187 27 0 39 -37 36 -119 -2 -61 1 -72 22 -95 43 -46 141
-28 230 43 l25 19 15 -32 c12 -24 24 -32 49 -34 37 -4 94 27 119 65 l16 24 17
-39 c14 -31 27 -43 55 -52 54 -18 102 0 169 61 l55 50 3 -53 c2 -39 7 -53 18
-53 11 0 16 13 18 45 5 78 22 147 42 165 29 26 50 12 50 -33 0 -77 19 -146 46
-169 46 -41 128 -24 219 45 l39 30 17 -39 c29 -63 95 -65 155 -5 l33 33 21
-34 c48 -82 152 -71 250 27 l38 38 7 -54 c10 -79 32 -72 40 14 12 123 33 170
68 156 23 -9 29 -30 35 -137 3 -65 8 -97 16 -94 6 2 12 26 14 53 4 80 12 114
33 135 34 34 49 10 49 -77 0 -60 4 -78 19 -93 46 -46 155 -31 241 32 l45 34
10 -31 c20 -61 93 -60 157 3 35 36 38 37 44 17 10 -34 45 -65 80 -72 41 -7
108 22 148 65 35 36 46 39 46 11 0 -30 44 -70 77 -70 32 0 77 27 100 59 l15
23 18 -29 c55 -90 145 -89 242 5 l37 35 7 -27 c16 -67 128 -108 238 -86 104
20 206 85 249 158 30 53 0 47 -52 -10 -59 -64 -125 -102 -203 -117 -137 -25
-233 34 -197 121 8 19 15 26 17 17 15 -49 76 -65 112 -29 26 26 27 90 2 113
-23 21 -61 22 -90 1 -12 -8 -47 -47 -78 -86 -100 -124 -198 -163 -245 -97 -30
42 -28 67 14 184 38 106 62 245 51 292 -15 61 -65 82 -103 44 -32 -32 -45 -97
-43 -228 0 -112 -5 -141 -23 -113 -3 6 -24 10 -45 10 -30 0 -43 -6 -60 -27
-11 -16 -39 -52 -61 -81 -49 -65 -109 -106 -155 -106 -53 0 -69 23 -69 99 0
78 -15 85 -45 21 -12 -23 -35 -57 -52 -75 -95 -97 -151 3 -58 103 37 39 42 41
94 40 37 0 56 4 56 12 0 28 -74 32 -126 8 -19 -9 -55 -42 -79 -74 -79 -103
-208 -169 -272 -138 -27 13 -28 17 -33 96 -4 68 -9 86 -24 98 -26 19 -39 18
-67 -5 -23 -19 -24 -19 -41 10 -22 36 -60 47 -93 25 -22 -14 -25 -15 -25 -1 0
8 -7 15 -15 15 -11 0 -15 -11 -15 -43 0 -38 -6 -50 -51 -100 -56 -63 -112 -97
-158 -97 -34 0 -58 21 -78 67 -12 30 -11 37 7 72 55 108 95 331 70 391 -23 56
-87 52 -116 -8 -15 -29 -19 -67 -22 -179 -4 -135 -5 -142 -22 -133 -10 6 -33
10 -50 10 -33 0 -43 -9 -113 -100 -50 -63 -118 -109 -173 -117 -62 -7 -74 9
-86 113 -10 94 -25 124 -63 124 -11 0 -30 -6 -40 -14 -17 -12 -21 -12 -31 2
-17 23 -34 5 -34 -37 0 -72 -114 -185 -187 -185 -52 0 -73 31 -73 105 0 72
-17 78 -43 14 -20 -48 -87 -115 -115 -115 -45 0 -53 41 -21 106 28 60 77 88
135 80 34 -4 44 -2 44 8 0 18 -22 26 -68 26 -53 -1 -80 -19 -148 -101 -91
-111 -185 -160 -245 -129 -16 9 -19 22 -19 88 0 81 -12 116 -45 138 -17 11
-25 11 -48 -1 -15 -7 -27 -12 -27 -11 0 2 11 23 24 47 36 64 66 162 66 212 0
73 -49 114 -108 90z m68 -42 c24 -45 -3 -157 -63 -261 l-32 -55 -3 45 c-5 69
17 241 33 267 19 28 51 30 65 4z m1531 -8 c15 -38 -2 -164 -37 -273 -23 -72
-28 -81 -35 -60 -11 40 -10 251 2 295 19 70 51 87 70 38z m1553 -78 c-1 -79
-7 -117 -28 -182 -15 -46 -32 -83 -37 -83 -7 0 -10 53 -7 158 2 132 6 163 21
186 11 16 25 26 35 24 15 -3 17 -17 16 -103z m364 -244 c18 -11 11 -61 -9 -74
-28 -17 -49 -1 -49 37 0 41 26 58 58 37z m-2051 -16 c11 -8 26 -28 32 -45 9
-28 7 -34 -33 -76 -51 -53 -83 -56 -104 -11 -17 35 -9 85 19 121 23 29 54 33
86 11z m1566 -13 c15 -15 27 -38 27 -50 0 -28 -55 -90 -87 -98 -50 -13 -79 52
-54 119 24 61 71 74 114 29z"/>
<path d="M1876 1121 c-30 -33 -38 -84 -37 -235 0 -180 15 -242 70 -297 48 -48
106 -65 178 -50 63 12 140 50 186 91 43 37 47 37 47 2 0 -26 22 -69 44 -84 6
-4 28 -8 49 -8 30 0 45 7 67 30 25 26 32 29 55 20 39 -15 131 -12 173 5 20 9
55 34 78 56 l41 40 21 -58 c31 -84 36 -90 58 -72 9 8 27 35 39 62 l22 47 26
-38 c59 -90 173 -95 252 -12 l28 30 18 -40 c25 -57 65 -74 169 -74 115 0 181
26 261 104 52 51 74 90 51 90 -4 0 -37 -29 -74 -64 -57 -56 -75 -68 -138 -87
-118 -35 -220 -13 -244 54 -7 18 -6 35 3 54 l13 28 14 -28 c20 -38 76 -41 107
-5 33 39 18 111 -27 122 -41 10 -71 -9 -130 -83 -79 -98 -118 -126 -177 -126
-39 0 -53 5 -78 29 -44 43 -57 80 -42 123 11 30 11 37 -2 50 -27 27 -47 9 -47
-41 0 -43 -44 -165 -55 -154 -3 3 -20 49 -38 103 -36 107 -65 141 -53 64 6
-39 3 -48 -24 -81 -56 -67 -156 -96 -239 -67 -28 10 -31 15 -31 51 0 45 -25
105 -49 117 -9 4 -30 11 -47 14 -35 7 -49 -5 -97 -81 -31 -48 -88 -93 -162
-128 -65 -31 -156 -33 -202 -4 -30 18 -73 84 -73 112 0 6 20 50 44 97 73 143
97 267 60 319 -20 29 -83 31 -108 3z m82 -23 c28 -28 7 -140 -49 -255 l-37
-78 -1 132 c-1 152 14 213 53 213 12 0 27 -5 34 -12z m1480 -365 c-3 -30 -28
-49 -52 -40 -22 9 -21 63 1 76 27 15 55 -5 51 -36z m-998 -78 c35 -33 36 -42
13 -67 -23 -25 -68 -23 -87 4 -21 29 -20 110 0 151 l17 32 13 -45 c7 -25 27
-59 44 -75z m14 96 c16 -18 35 -91 23 -91 -10 0 -46 56 -52 83 -8 32 5 35 29
8z"/>
<path d="M1057 748 c-9 -74 6 -168 28 -184 21 -16 49 -4 65 27 11 20 12 20 31
-5 25 -31 52 -33 78 -5 11 12 21 16 25 10 13 -20 73 -30 118 -18 66 16 198
157 148 157 -5 0 -31 -23 -57 -51 -55 -59 -89 -79 -136 -79 -59 0 -72 19 -69
95 3 52 0 70 -14 86 -21 23 -28 24 -48 3 -21 -21 -20 -70 3 -121 16 -34 17
-44 7 -59 -7 -9 -18 -14 -24 -10 -14 8 -32 71 -32 109 0 44 -24 27 -32 -23 -8
-48 -34 -94 -48 -85 -6 4 -10 51 -10 106 0 77 -3 99 -14 99 -9 0 -15 -18 -19
-52z m203 -25 c0 -28 -3 -34 -10 -23 -13 20 -13 60 0 60 6 0 10 -17 10 -37z"/>
</g>
</svg>
