<?xml version="1.0" standalone="no"?>
<!DOCTYPE svg PUBLIC "-//W3C//DTD SVG 20010904//EN"
 "http://www.w3.org/TR/2001/REC-SVG-20010904/DTD/svg10.dtd">
<svg version="1.0" xmlns="http://www.w3.org/2000/svg"
 width="529.000000pt" height="566.000000pt" viewBox="0 0 529.000000 566.000000"
 preserveAspectRatio="xMidYMid meet">

<g transform="translate(0.000000,566.000000) scale(0.100000,-0.100000)"
fill="#000000" stroke="none">
<path d="M2576 5129 c-73 -11 -103 -30 -123 -77 -31 -74 19 -148 120 -176 52
-15 265 -39 453 -52 l100 -7 0 -52 c-1 -74 32 -118 179 -236 160 -128 229
-204 290 -319 81 -152 170 -228 312 -265 85 -22 631 -22 639 0 4 8 1 22 -6 30
-11 14 -55 16 -304 15 -314 -1 -342 2 -430 54 -53 31 -112 97 -146 162 -78
151 -138 220 -312 360 -64 51 -128 109 -142 127 -33 43 -35 96 -5 123 84 75
434 -105 638 -329 35 -38 70 -46 79 -18 7 21 -170 187 -273 257 -198 135 -358
189 -452 153 -46 -18 -562 28 -629 56 -37 15 -64 50 -64 82 0 39 39 54 162 62
130 9 555 -3 703 -19 269 -30 455 -111 640 -279 147 -133 341 -247 478 -282
34 -8 51 -9 59 -1 20 20 -1 40 -68 61 -143 47 -292 138 -434 266 -180 162
-369 249 -620 284 -180 26 -717 38 -844 20z"/>
<path d="M832 4021 c-8 -5 -12 -17 -10 -27 3 -18 20 -19 318 -24 l315 -5 65
-31 c82 -39 148 -105 196 -197 77 -148 133 -211 316 -355 123 -97 158 -140
158 -190 0 -37 -39 -72 -80 -72 -122 0 -418 173 -564 330 -56 62 -87 74 -94
37 -6 -29 157 -179 289 -267 150 -98 250 -141 345 -148 42 -3 79 0 92 7 29 16
503 -23 603 -49 46 -13 89 -52 89 -83 0 -43 -30 -57 -141 -69 -127 -13 -628 4
-788 28 -239 35 -411 117 -596 285 -135 122 -306 223 -447 264 -62 18 -78 15
-78 -15 0 -14 16 -23 65 -39 155 -50 282 -127 433 -259 121 -106 197 -158 306
-205 200 -86 384 -110 856 -111 351 -1 382 3 420 51 32 40 27 104 -10 147 -53
60 -105 72 -440 101 -96 8 -182 15 -191 15 -13 0 -17 10 -16 48 1 84 -24 116
-214 268 -135 109 -201 184 -261 299 -76 147 -191 239 -332 264 -70 13 -585
15 -604 2z"/>
<path d="M3440 1990 c0 -13 7 -20 20 -20 13 0 20 7 20 20 0 13 -7 20 -20 20
-13 0 -20 -7 -20 -20z"/>
<path d="M1600 1895 c-8 -9 -10 -29 -7 -49 15 -91 -156 -179 -267 -136 -22 8
-26 16 -26 50 0 70 -38 122 -96 133 -25 5 -36 1 -57 -21 -64 -68 -52 -215 20
-243 34 -13 89 5 109 36 13 21 19 22 42 14 44 -17 136 -12 184 9 24 10 61 39
83 63 34 36 47 44 75 43 34 0 35 -2 41 -46 12 -83 52 -118 132 -118 45 0 152
45 176 74 13 15 15 14 32 -14 39 -63 116 -58 158 10 18 31 19 31 25 8 9 -34 7
-78 -3 -78 -4 0 -29 -18 -54 -40 -59 -53 -97 -128 -97 -194 0 -57 5 -68 38
-85 61 -32 137 80 150 222 l7 78 77 33 c42 18 89 43 104 55 l28 22 12 -30 c26
-62 89 -60 155 5 l38 37 7 -27 c16 -67 109 -88 180 -40 21 14 54 40 72 57 l32
31 0 -45 c0 -47 12 -75 27 -66 6 4 13 39 16 79 8 87 23 135 47 148 28 15 38
-7 49 -99 10 -91 30 -125 81 -136 41 -9 132 30 189 81 l49 44 7 -30 c13 -58
89 -110 162 -110 39 0 122 37 169 75 38 32 44 34 44 16 0 -29 55 -79 96 -87
63 -12 156 1 217 29 83 38 205 167 157 167 -5 0 -37 -29 -72 -64 -80 -81 -149
-110 -250 -104 -54 3 -72 8 -93 28 -50 47 -22 135 56 175 38 20 56 19 76 -5
19 -21 43 -27 43 -10 0 6 -11 22 -25 35 -49 50 -119 23 -199 -76 -94 -116
-178 -159 -266 -137 -66 17 -84 46 -90 146 -5 91 -21 115 -30 47 -7 -52 -41
-96 -107 -142 -62 -43 -139 -56 -162 -29 -8 9 -17 51 -21 94 -10 120 -43 156
-101 113 -23 -17 -29 -19 -29 -6 0 8 -6 15 -14 15 -10 0 -17 -16 -21 -44 -8
-50 -53 -110 -118 -157 -84 -61 -151 -24 -146 80 2 32 -2 56 -8 58 -6 2 -22
-21 -37 -51 -32 -66 -76 -106 -117 -106 -41 0 -48 36 -18 97 33 65 68 89 130
86 54 -2 65 12 22 28 -57 21 -92 3 -188 -95 -75 -77 -102 -97 -158 -121 -37
-15 -69 -26 -72 -24 -2 3 -7 46 -11 97 -8 101 -25 123 -44 54 -21 -81 -83
-142 -122 -121 -30 16 -32 54 -6 100 27 50 63 78 108 88 45 9 52 31 10 31 -56
0 -98 -32 -182 -143 -34 -44 -137 -97 -190 -97 -30 0 -46 7 -69 29 -26 27 -29
36 -29 95 0 36 -3 66 -8 66 -4 0 -18 -7 -30 -16 -34 -23 -55 -12 -41 22 5 15
8 33 5 41 -7 18 -41 17 -56 -2z m-416 -77 c3 -14 22 -47 42 -73 34 -45 35 -48
18 -66 -44 -49 -107 -6 -107 74 0 39 33 125 39 102 1 -5 5 -22 8 -37z m66 10
c11 -18 20 -44 20 -57 0 -20 -2 -22 -16 -10 -19 16 -44 63 -44 84 0 25 19 17
40 -17z m980 -271 c0 -96 -60 -221 -103 -215 -29 4 -35 65 -12 124 16 42 85
124 105 124 5 0 10 -15 10 -33z"/>
<path d="M1727 1102 c-36 -40 -41 -74 -45 -324 -3 -215 -2 -248 11 -248 11 0
17 16 22 53 9 65 35 125 67 155 24 21 27 22 42 7 12 -12 16 -35 16 -91 0 -106
23 -143 90 -144 44 0 125 37 173 80 28 24 37 28 37 16 0 -56 77 -98 179 -97
96 0 180 33 252 98 l39 35 0 -40 c0 -49 8 -72 25 -72 8 0 14 26 18 79 7 95 29
154 54 149 29 -5 43 -48 43 -130 0 -87 6 -109 26 -101 10 4 14 24 14 79 0 64
3 76 25 101 25 28 25 28 40 8 12 -15 14 -33 10 -70 -11 -88 20 -128 100 -128
60 0 110 20 181 74 75 56 71 65 49 -116 -19 -158 -19 -256 -1 -281 14 -18 15
-18 33 -1 16 16 18 36 16 181 l-1 162 106 -14 c126 -17 184 -8 257 40 59 39
130 127 115 142 -7 7 -25 -7 -61 -47 -81 -91 -163 -126 -258 -111 l-38 6 24
45 c21 37 25 54 21 105 -4 48 -9 65 -27 79 -34 28 -59 23 -98 -16 -19 -19 -37
-35 -39 -35 -2 0 -4 14 -4 31 0 49 -24 29 -31 -26 -5 -42 -12 -54 -57 -96 -65
-60 -126 -89 -184 -89 -60 0 -74 17 -70 89 4 99 -36 144 -94 106 -14 -9 -27
-15 -28 -13 -1 2 -10 15 -19 31 -20 31 -60 36 -89 10 -17 -15 -18 -15 -18 0 0
10 -6 17 -14 17 -9 0 -16 -17 -21 -46 -8 -57 -74 -133 -150 -172 -43 -23 -62
-27 -142 -27 -77 0 -96 3 -120 21 -30 22 -39 58 -28 103 l7 26 14 -27 c37 -71
134 -32 134 53 0 29 -36 59 -71 59 -33 0 -49 -14 -154 -135 -31 -37 -68 -67
-100 -81 -104 -49 -135 -26 -135 99 0 69 -3 81 -25 102 -28 29 -42 31 -73 9
-21 -14 -20 -9 12 55 64 126 76 211 40 269 -18 27 -73 30 -97 4z m79 -38 c13
-53 -3 -123 -50 -216 l-46 -93 4 130 c4 153 19 205 60 205 19 0 27 -7 32 -26z
m1574 -378 c0 -45 -27 -98 -59 -115 -23 -13 -81 -3 -81 13 0 41 36 124 67 155
l35 35 19 -23 c12 -14 19 -39 19 -65z m-1090 49 c15 -18 0 -62 -25 -71 -21 -8
-45 14 -45 40 0 42 45 62 70 31z m927 -457 c-2 -13 -4 -3 -4 22 0 25 2 35 4
23 2 -13 2 -33 0 -45z"/>
</g>
</svg>
