<?xml version="1.0" standalone="no"?>
<!DOCTYPE svg PUBLIC "-//W3C//DTD SVG 20010904//EN"
 "http://www.w3.org/TR/2001/REC-SVG-20010904/DTD/svg10.dtd">
<svg version="1.0" xmlns="http://www.w3.org/2000/svg"
 width="491.000000pt" height="604.000000pt" viewBox="0 0 491.000000 604.000000"
 preserveAspectRatio="xMidYMid meet">

<g transform="translate(0.000000,604.000000) scale(0.100000,-0.100000)"
fill="#000000" stroke="none">
<path d="M1677 5583 c-14 -13 -7 -43 12 -53 12 -6 102 -10 223 -10 l203 0 19
-35 c29 -53 119 -133 183 -163 52 -24 69 -27 168 -27 99 0 116 3 168 27 64 30
154 110 183 163 l19 35 255 0 255 -1 195 -245 c107 -134 199 -251 204 -258 7
-10 0 -26 -27 -55 -42 -46 -45 -59 -19 -91 16 -20 34 -24 122 -33 102 -11 103
-10 122 13 16 20 18 37 16 129 -3 105 -3 106 -32 119 -26 13 -31 12 -74 -18
-45 -32 -45 -32 -61 -11 -9 11 -106 133 -216 270 l-200 251 -292 0 -291 0 -22
-45 c-28 -57 -97 -127 -153 -154 -170 -82 -376 -13 -457 154 l-22 45 -237 0
c-131 0 -241 -3 -244 -7z"/>
<path d="M1405 5539 c-133 -32 -153 -86 -55 -150 l24 -16 -217 -272 c-119
-149 -217 -276 -217 -282 0 -15 24 -35 319 -269 l271 -215 0 -492 c0 -434 2
-493 16 -507 13 -14 51 -16 258 -16 261 0 286 4 272 48 -7 22 -10 22 -242 22
l-234 0 0 488 0 489 -280 222 c-154 122 -282 226 -285 232 -4 5 82 121 191
257 108 136 198 248 199 250 2 2 25 -9 52 -24 54 -30 73 -28 98 9 14 22 14 33
0 118 -11 72 -20 98 -36 112 -25 20 -32 20 -134 -4z"/>
<path d="M3583 4558 c-126 -100 -231 -186 -235 -192 -4 -6 -8 -228 -8 -494 l0
-482 -437 2 -438 3 0 45 c-1 54 -8 68 -42 81 -31 12 -54 -1 -135 -79 -79 -75
-78 -89 16 -180 44 -43 82 -72 95 -72 36 0 61 35 61 85 l0 45 456 0 c295 0
462 4 475 10 18 10 19 27 19 508 l1 497 219 174 c124 98 220 182 220 191 0 17
-18 40 -32 40 -4 0 -110 -82 -235 -182z"/>
<path d="M2573 4624 c-132 -105 -282 -270 -365 -400 -85 -133 -169 -356 -171
-458 -2 -58 -1 -61 22 -61 27 0 28 3 56 125 61 264 264 558 518 750 50 38 59
52 51 75 -11 27 -52 16 -111 -31z"/>
<path d="M2067 2248 c-41 -31 -52 -85 -52 -254 l0 -162 -32 -40 c-42 -52 -137
-98 -220 -107 l-61 -6 5 41 c7 52 -12 74 -79 90 -57 14 -69 32 -42 61 16 18
27 20 67 16 35 -5 47 -3 47 7 0 35 -101 36 -135 1 -47 -46 -26 -98 43 -111 54
-10 72 -22 72 -48 0 -30 -36 -46 -89 -39 -33 5 -41 3 -41 -10 0 -23 35 -30
164 -31 102 -1 116 2 171 27 33 15 79 46 102 69 l41 41 20 -39 c39 -75 88
-104 175 -104 63 1 146 33 216 84 l50 37 10 -37 c24 -86 91 -109 156 -53 32
28 38 30 66 20 71 -25 155 -8 223 43 l44 34 5 -39 c9 -70 51 -92 83 -44 l17
26 27 -26 c32 -30 43 -31 69 -4 18 20 21 20 42 5 59 -41 159 -4 234 88 30 37
36 49 26 59 -10 9 -16 8 -27 -8 -79 -108 -164 -150 -223 -109 -21 15 -22 22
-17 73 7 65 -8 104 -42 109 -43 6 -51 -70 -15 -141 10 -21 11 -32 2 -48 -10
-19 -12 -20 -27 -6 -9 9 -17 40 -20 72 -4 45 -8 55 -21 53 -10 -2 -18 -17 -21
-44 -4 -23 -14 -54 -25 -70 -17 -26 -19 -27 -26 -9 -4 11 -8 60 -8 108 -1 66
-4 88 -13 85 -7 -3 -16 -21 -19 -42 -6 -39 -54 -97 -99 -121 -43 -22 -97 -28
-150 -15 -50 12 -50 12 -50 51 0 85 -48 143 -112 137 -25 -2 -38 -11 -53 -37
-91 -153 -277 -241 -383 -181 -39 22 -82 82 -82 114 0 9 20 55 44 103 80 160
98 272 51 318 -26 27 -62 32 -88 13z m67 -34 c32 -31 11 -146 -47 -261 l-34
-66 -6 44 c-3 24 -2 90 2 145 10 134 40 183 85 138z m486 -449 c37 -35 38 -50
5 -71 -31 -20 -70 -12 -86 18 -17 32 -14 114 6 145 l18 27 13 -45 c7 -24 27
-58 44 -74z m14 96 c16 -18 35 -91 23 -91 -10 0 -46 56 -52 83 -8 32 5 35 29
8z m555 -18 c-1 -33 -2 -35 -8 -13 -4 14 -6 31 -3 38 8 22 12 13 11 -25z"/>
<path d="M2364 1140 c-41 -16 -56 -81 -62 -258 l-5 -163 -48 -50 c-59 -60
-117 -88 -203 -96 l-64 -6 5 40 c7 51 -18 76 -88 93 -54 13 -64 34 -29 65 15
14 29 16 65 11 28 -5 45 -3 45 3 0 28 -82 41 -122 20 -11 -6 -26 -27 -35 -46
-34 -82 -137 -173 -195 -173 -48 0 -68 31 -68 105 0 75 -20 90 -40 29 -7 -20
-32 -56 -55 -81 -35 -36 -49 -44 -72 -41 -24 2 -28 8 -31 36 -8 77 80 161 153
148 38 -8 55 8 26 23 -57 31 -125 0 -198 -91 -30 -38 -73 -83 -96 -99 -40 -29
-139 -63 -264 -91 l-63 -15 0 107 0 107 45 67 c100 150 107 306 14 306 -36 0
-66 -42 -79 -109 -14 -74 -22 -658 -9 -704 17 -65 83 -86 110 -35 37 68 28
127 -28 189 -20 22 -34 42 -31 44 2 2 38 11 79 20 117 24 193 53 253 95 48 34
56 37 56 20 0 -68 113 -65 168 5 23 29 32 32 32 9 0 -8 13 -29 29 -45 56 -55
145 -29 233 68 l36 41 54 -15 c80 -23 96 -44 61 -78 -13 -13 -27 -16 -65 -11
-39 5 -48 4 -48 -8 0 -28 36 -35 161 -33 144 3 188 18 263 87 l46 43 0 -56 c0
-51 12 -78 27 -63 4 3 10 34 15 68 8 63 48 145 74 155 30 11 44 -17 44 -93 0
-93 11 -121 55 -140 61 -25 158 14 231 93 l32 35 11 -35 c20 -61 78 -99 150
-100 65 -1 115 19 177 69 29 24 56 44 59 44 3 0 5 -9 5 -20 0 -29 26 -76 45
-84 41 -16 87 -6 115 24 25 26 32 29 55 20 34 -13 110 -13 156 0 19 5 54 26
77 46 l42 36 0 -40 c0 -50 8 -72 26 -72 10 0 14 13 14 44 0 75 18 150 42 169
32 27 46 6 57 -91 12 -113 32 -136 113 -130 47 4 68 12 115 44 70 48 118 106
109 130 -5 14 -16 7 -58 -40 -78 -88 -193 -134 -228 -91 -7 8 -16 54 -21 102
-10 100 -29 130 -72 119 -14 -3 -32 -13 -40 -21 -13 -12 -16 -12 -21 8 -8 32
-26 9 -33 -42 -7 -48 -63 -114 -118 -137 -41 -17 -110 -18 -154 -3 -28 10 -31
15 -31 51 0 40 -23 103 -42 114 -6 4 -27 10 -47 15 -31 7 -39 5 -63 -18 -16
-15 -28 -32 -28 -39 0 -23 -110 -132 -154 -153 -52 -26 -127 -27 -167 -4 -43
26 -61 73 -57 151 2 45 -1 67 -9 69 -7 3 -15 -7 -18 -21 -3 -14 -7 -36 -10
-49 -13 -64 -146 -167 -217 -167 -53 0 -67 26 -65 116 1 86 -18 124 -61 124
-16 0 -33 -5 -40 -12 -19 -19 -14 -2 18 61 63 125 74 227 29 272 -20 20 -41
23 -75 9z m65 -54 c19 -40 2 -110 -52 -218 l-42 -83 -3 80 c-7 191 49 320 97
221z m-1420 -53 c15 -37 -8 -127 -52 -202 l-32 -56 -3 50 c-8 117 23 235 62
235 7 0 19 -12 25 -27z m2291 -378 c35 -33 36 -42 13 -67 -23 -25 -68 -23 -87
4 -21 29 -20 110 0 151 l17 32 13 -45 c7 -25 27 -59 44 -75z m20 83 c11 -18
20 -44 20 -57 0 -21 -2 -22 -17 -10 -16 14 -43 69 -43 89 0 21 21 9 40 -22z
m-2353 -347 c14 -20 23 -49 23 -71 0 -44 -28 -85 -48 -71 -17 10 -31 72 -32
134 0 40 3 48 17 45 10 -2 28 -18 40 -37z"/>
<path d="M2803 923 c-22 -8 -15 -43 7 -43 13 0 20 7 20 19 0 22 -9 30 -27 24z"/>
</g>
</svg>
