<?xml version="1.0" standalone="no"?>
<!DOCTYPE svg PUBLIC "-//W3C//DTD SVG 20010904//EN"
 "http://www.w3.org/TR/2001/REC-SVG-20010904/DTD/svg10.dtd">
<svg version="1.0" xmlns="http://www.w3.org/2000/svg"
 width="1140.000000pt" height="365.000000pt" viewBox="0 0 1140.000000 365.000000"
 preserveAspectRatio="xMidYMid meet">

<g transform="translate(0.000000,365.000000) scale(0.100000,-0.100000)"
fill="#000000" stroke="none">
<path d="M1290 3598 c0 -24 9 -229 21 -456 12 -227 18 -416 15 -419 -5 -5
-759 -153 -783 -153 -16 0 -65 123 -108 270 -100 345 -121 397 -191 482 -58
69 -195 171 -210 155 -2 -2 -9 -91 -15 -198 -15 -257 -6 -830 15 -964 8 -55
20 -185 26 -290 16 -299 28 -373 75 -464 46 -90 152 -163 257 -177 l45 -6 20
48 c55 129 67 245 52 492 -6 106 -10 194 -8 196 5 5 886 106 922 106 19 0 27
-5 27 -17 0 -48 32 -359 45 -442 38 -236 127 -387 279 -476 59 -35 61 -33 102
93 27 81 29 98 28 242 -1 330 -105 969 -219 1351 -47 157 -119 334 -175 434
-48 85 -146 197 -192 221 l-28 15 0 -43z"/>
<path d="M9040 3514 c-72 -20 -134 -61 -207 -137 -76 -79 -112 -133 -172 -254
-239 -483 -282 -1135 -98 -1488 38 -72 178 -216 257 -262 72 -42 169 -67 228
-58 166 25 306 145 516 443 32 46 64 86 70 88 7 3 50 -13 96 -34 234 -108 479
-157 660 -132 452 61 748 460 909 1225 32 152 76 426 87 544 l7 74 -53 -29
c-65 -35 -159 -126 -221 -214 -25 -36 -97 -153 -159 -260 -150 -260 -217 -357
-314 -458 -92 -96 -168 -153 -273 -206 -140 -70 -343 -111 -518 -104 l-79 3
-47 215 c-105 483 -191 741 -298 887 -90 124 -262 193 -391 157z m181 -684
c52 -125 72 -242 67 -405 -4 -119 -9 -152 -32 -220 -62 -183 -175 -285 -333
-301 l-60 -7 -6 39 c-13 74 -7 340 8 430 34 199 104 361 229 527 l51 68 22
-28 c13 -15 37 -62 54 -103z"/>
<path d="M2684 3460 c-193 -60 -366 -391 -446 -856 -30 -177 -33 -556 -4 -709
65 -352 218 -574 445 -646 131 -41 338 -22 516 49 47 18 51 22 62 68 17 74 16
170 -4 211 -26 55 -75 80 -244 122 -86 21 -182 53 -216 69 -59 30 -173 125
-173 144 0 11 90 51 150 66 25 6 116 22 202 36 240 39 310 73 356 175 19 41
26 73 26 120 l1 65 -91 62 c-128 87 -164 94 -336 65 -142 -23 -288 -38 -288
-28 0 3 12 38 26 77 43 120 98 203 245 372 144 166 170 235 125 333 -30 67
-115 153 -182 185 -53 26 -123 34 -170 20z"/>
<path d="M7090 3394 c-152 -19 -483 -107 -539 -143 -11 -7 -13 -31 -8 -123 7
-130 32 -304 122 -858 174 -1069 207 -1365 187 -1716 -16 -276 1 -358 90 -440
49 -45 120 -89 158 -99 22 -5 29 0 57 47 128 212 154 409 115 853 -19 205 -19
221 -4 233 10 7 73 43 142 79 310 164 419 235 544 353 331 315 362 711 98
1233 -147 289 -249 410 -415 492 -128 63 -223 85 -382 90 -71 2 -146 1 -165
-1z m505 -528 c54 -15 105 -32 112 -38 26 -21 55 -142 60 -249 12 -225 -75
-423 -264 -599 -73 -69 -200 -156 -285 -195 -49 -23 -54 -23 -60 -7 -4 9 -52
258 -108 552 -55 294 -103 543 -106 553 -6 18 5 19 273 15 264 -4 283 -6 378
-32z"/>
<path d="M3892 3116 c-59 -177 -120 -405 -156 -581 -137 -679 -70 -1159 185
-1327 69 -45 146 -75 160 -61 17 17 57 144 78 248 33 167 58 412 86 865 18
292 34 494 41 534 l6 28 29 -28 c80 -82 138 -220 214 -517 31 -117 67 -243 81
-280 79 -206 221 -309 447 -324 l94 -6 56 68 c100 121 157 251 221 505 20 80
51 188 68 240 29 89 109 260 144 305 19 25 21 22 75 -114 56 -143 101 -324
149 -601 50 -287 80 -418 121 -515 44 -106 118 -207 192 -262 57 -41 147 -93
163 -93 19 0 -22 480 -62 720 -94 574 -270 998 -502 1210 -68 63 -205 140
-248 140 -33 0 -158 -120 -222 -213 -74 -107 -141 -250 -217 -457 -72 -198
-130 -331 -166 -382 l-23 -31 -19 44 c-10 24 -54 143 -98 264 -128 352 -195
477 -316 585 -105 94 -297 171 -463 186 l-66 7 -52 -157z"/>
</g>
</svg>
